<?xml version="1.0" standalone="no"?>
<!DOCTYPE svg PUBLIC "-//W3C//DTD SVG 20010904//EN"
 "http://www.w3.org/TR/2001/REC-SVG-20010904/DTD/svg10.dtd">
<svg version="1.0" xmlns="http://www.w3.org/2000/svg"
 width="1200.000000pt" height="1200.000000pt" viewBox="0 0 1200.000000 1200.000000"
 preserveAspectRatio="xMidYMid meet">

<g transform="translate(0.000000,1200.000000) scale(0.100000,-0.100000)"
fill="#000000" stroke="none">
<path d="M5695 9934 c-538 -56 -1012 -241 -1410 -549 -427 -332 -729 -752
-905 -1260 -230 -665 -188 -1398 116 -2035 153 -319 349 -583 613 -823 408
-372 868 -591 1443 -684 133 -22 579 -25 713 -5 721 108 1312 441 1764 997
375 460 582 1054 583 1670 0 686 -242 1315 -699 1816 -423 463 -970 755 -1603
854 -101 16 -519 29 -615 19z m605 -139 c861 -133 1597 -683 1956 -1465 164
-355 237 -688 236 -1080 0 -292 -37 -530 -122 -791 -233 -713 -756 -1284
-1440 -1574 -213 -90 -402 -143 -650 -182 -88 -14 -173 -18 -365 -18 -227 1
-264 3 -405 28 -478 84 -850 253 -1224 556 -267 217 -493 500 -653 816 -376
744 -376 1586 0 2330 127 250 282 462 486 665 406 402 944 660 1511 726 152
17 527 11 670 -11z"/>
<path d="M6420 8950 c-499 -46 -908 -427 -994 -925 -9 -49 -16 -125 -16 -167
l0 -78 -84 0 c-330 0 -681 -184 -878 -460 -240 -337 -275 -782 -91 -1156 103
-208 287 -393 492 -494 173 -86 317 -120 505 -120 129 0 200 10 322 46 343 99
621 369 741 719 32 95 53 220 53 321 l0 84 78 0 c271 0 563 122 759 318 202
202 309 428 333 704 29 336 -95 666 -338 900 -97 93 -158 136 -277 196 -184
92 -396 131 -605 112z m-141 -745 c37 -19 54 -64 39 -105 -10 -30 -52 -60 -82
-60 -58 0 -104 65 -85 119 11 32 49 60 82 61 10 0 31 -7 46 -15z m602 -14 c20
-20 29 -39 29 -61 0 -37 -47 -90 -79 -90 -89 0 -132 106 -64 160 37 29 79 26
114 -9z m-673 -469 c40 -109 115 -181 224 -218 163 -54 363 50 414 215 l19 61
92 0 91 0 -14 -61 c-30 -127 -99 -233 -202 -309 -84 -62 -163 -90 -273 -97
-241 -15 -445 125 -524 360 -37 112 -40 107 64 107 l88 0 21 -58z m-768 -140
c0 -28 54 -180 85 -242 49 -96 116 -189 198 -276 44 -47 78 -86 76 -88 -2 -2
-67 -45 -144 -96 -77 -51 -144 -96 -149 -101 -5 -4 10 -36 35 -75 24 -37 47
-71 50 -76 3 -5 85 43 182 107 98 63 183 118 191 121 8 3 37 -6 65 -21 29 -14
98 -41 154 -60 l102 -35 -1 -93 c-5 -408 -282 -765 -684 -881 -31 -9 -100 -20
-155 -26 -510 -49 -958 316 -1015 825 -36 328 104 646 375 852 145 110 359
179 563 182 63 1 72 -1 72 -17z"/>
<path d="M4813 6930 l-52 -78 176 -117 c97 -64 178 -113 182 -107 3 5 26 39
50 76 25 38 40 71 35 75 -5 5 -83 58 -174 118 l-166 110 -51 -77z"/>
<path d="M4970 6225 l0 -95 385 0 385 0 0 95 0 95 -385 0 -385 0 0 -95z"/>
<path d="M4060 4044 c-136 -29 -260 -114 -310 -213 -50 -100 -63 -163 -58
-275 7 -137 35 -217 101 -291 64 -72 105 -98 220 -137 79 -27 106 -32 192 -32
158 0 267 39 368 133 102 95 147 235 134 415 -5 66 -13 95 -44 156 -44 87
-126 175 -194 208 -103 50 -277 65 -409 36z m279 -252 c68 -55 101 -123 101
-212 0 -214 -223 -326 -392 -197 -128 98 -121 327 13 410 86 53 212 52 278 -1z"/>
<path d="M5179 4045 c-113 -23 -244 -103 -293 -181 -84 -133 -101 -312 -45
-482 24 -72 103 -166 173 -207 63 -36 192 -74 276 -81 142 -12 320 49 408 139
71 74 109 158 123 273 21 173 -14 295 -120 416 -101 114 -314 164 -522 123z
m257 -238 c18 -9 44 -30 58 -48 49 -58 60 -89 60 -174 0 -84 -10 -115 -61
-182 -77 -101 -267 -96 -360 10 -78 89 -79 243 -3 340 60 76 214 103 306 54z"/>
<path d="M3395 4042 l-160 -3 -24 -36 c-32 -50 -164 -215 -186 -233 -16 -13
-19 -12 -39 13 -11 16 -37 47 -56 70 -20 23 -60 75 -90 115 l-54 72 -182 0
c-133 0 -184 -3 -192 -12 -6 -7 -9 -53 -9 -103 l2 -90 53 -3 52 -3 0 -249 0
-249 -52 -3 -53 -3 -2 -97 c-2 -84 -1 -97 15 -102 9 -3 116 -6 237 -8 l219 -3
6 30 c3 17 3 64 0 105 l-5 75 -50 5 -50 5 -3 163 c-1 102 1 163 7 160 5 -1 22
-20 38 -40 15 -20 48 -63 72 -95 66 -86 103 -123 122 -123 10 0 31 17 48 38
117 145 175 212 183 212 5 0 7 -69 6 -157 l-3 -158 -50 -5 -50 -5 0 -92 c0
-51 5 -96 10 -102 6 -5 108 -11 228 -14 182 -4 220 -2 232 10 16 15 22 168 7
189 -4 6 -28 14 -53 18 -41 6 -47 10 -51 34 -7 43 -2 441 5 449 4 4 26 9 49
12 50 7 56 20 57 129 1 69 0 73 -25 82 -14 6 -31 9 -37 8 -7 -1 -84 -4 -172
-6z"/>
<path d="M6958 4042 c-15 -2 -29 -11 -31 -20 -4 -15 -3 -145 1 -179 1 -9 20
-13 55 -13 l52 0 -1 -118 c-1 -64 -2 -176 -2 -249 l-2 -132 -52 -3 -53 -3 -1
-80 c0 -44 3 -90 8 -103 l8 -22 232 2 233 3 5 75 c9 114 4 124 -57 128 l-51 3
-1 249 -1 250 49 0 c59 0 61 3 61 116 0 59 -4 86 -12 89 -17 5 -405 11 -440 7z"/>
<path d="M8621 4043 c-108 -2 -180 -8 -188 -14 -18 -15 -18 -175 0 -186 6 -4
30 -10 51 -13 38 -5 44 -12 157 -170 127 -176 147 -211 156 -265 8 -49 -10
-68 -57 -60 -54 9 -61 -6 -58 -116 l3 -94 237 -3 238 -2 5 22 c3 13 5 59 3
103 l-3 80 -50 5 -50 5 -3 42 c-4 48 27 117 86 193 21 26 68 96 105 155 61 96
71 106 92 101 13 -3 35 -2 50 4 26 10 26 10 23 107 l-3 98 -222 3 -223 2 -5
-22 c-3 -13 -5 -61 -3 -108 3 -75 5 -85 21 -82 9 2 17 -3 17 -10 0 -17 -62
-111 -75 -115 -11 -3 -75 95 -75 115 0 7 9 12 19 12 25 0 29 17 23 115 -5 89
-16 106 -66 103 -17 -1 -109 -4 -205 -5z"/>
<path d="M5895 4018 c-3 -13 -5 -59 -3 -103 l3 -80 47 -3 46 -3 4 -42 c1 -23
2 -137 0 -253 l-3 -210 -47 0 -47 1 -3 -94 c-1 -52 1 -98 6 -103 5 -5 128 -9
273 -9 369 -1 455 20 578 139 50 49 62 68 86 137 18 54 29 110 32 173 8 127
-12 196 -80 288 -61 80 -106 113 -202 151 -70 27 -71 27 -377 31 l-307 3 -6
-23z m559 -208 c57 -13 87 -39 119 -100 47 -93 33 -236 -31 -303 -47 -50 -79
-61 -179 -61 -50 -1 -95 3 -100 7 -9 10 -9 426 0 451 5 13 21 16 79 16 40 0
91 -5 112 -10z"/>
<path d="M7527 4033 c-4 -3 -7 -50 -7 -103 l0 -97 50 -7 50 -7 -2 -242 -3
-242 -45 -5 -45 -5 -8 -80 c-12 -133 -31 -122 215 -127 117 -2 224 -2 238 2
25 6 25 8 25 106 l0 99 -52 3 c-59 3 -68 16 -61 83 l3 34 90 1 c50 1 102 2
117 3 l27 1 -1 93 c0 50 -2 99 -4 107 -3 12 -22 14 -110 12 -81 -3 -109 -1
-115 10 -5 7 -9 43 -9 80 l0 67 118 -2 117 -2 3 -35 c6 -57 16 -62 108 -57 45
2 86 7 93 11 12 8 16 260 5 290 -5 14 -50 16 -398 16 -216 0 -396 -3 -399 -7z"/>
</g>
</svg>
